<svg xmlns="http://www.w3.org/2000/svg" viewBox="0 0 1600 1000" width="1600" height="1000" preserveAspectRatio="xMidYMid meet">
<defs>
  <radialGradient id="topglow" cx="50%" cy="0%" r="65%" fx="50%" fy="0%">
    <stop offset="0%" stop-color="#407914" stop-opacity="0.12"/>
    <stop offset="60%" stop-color="#407914" stop-opacity="0"/>
  </radialGradient>
</defs>
<rect x="0" y="0" width="1600" height="1000" fill="#050505"/>
<rect x="0" y="0" width="1600" height="1000" fill="url(#topglow)"/>
<circle cx="86" cy="72" r="7" fill="#407914"/>
<circle cx="86" cy="72" r="13" fill="none" stroke="#407914" stroke-opacity="0.35"/>
<text x="112" y="79" font-family="'Inter', -apple-system, BlinkMacSystemFont, 'Segoe UI', sans-serif" font-size="19" font-weight="500" fill="#ededed" letter-spacing="-0.01em">MSL-Bench</text>
<text x="1528" y="79" text-anchor="end" font-family="'JetBrains Mono', ui-monospace, monospace" font-size="12" fill="#6b6b6b" letter-spacing="0.14em">60 PROBLEMS · 4 TIERS · 9 RUNS</text>
<line x1="72" y1="148" x2="96" y2="148" stroke="#407914" stroke-width="1"/>
<text x="112" y="152" font-family="'JetBrains Mono', ui-monospace, monospace" font-size="12" fill="#407914" letter-spacing="0.24em">01 .KERNELBENCH()</text>
<text x="72" y="210" font-family="'Inter', -apple-system, BlinkMacSystemFont, 'Segoe UI', sans-serif" font-size="46" font-weight="500" fill="#ededed" letter-spacing="-0.025em">Evaluating LLM-Generated Metal Compute Kernels</text>
<text x="72" y="256" font-family="'Inter', -apple-system, BlinkMacSystemFont, 'Segoe UI', sans-serif" font-size="46" font-weight="500" fill="#a1a1a1" letter-spacing="-0.025em">on Apple Silicon</text>
<rect x="72" y="300" width="1456" height="360" fill="rgba(15,15,15,0.30)" stroke="rgba(255,255,255,0.07)" stroke-width="1" rx="6"/>
<text x="94" y="330" font-family="'JetBrains Mono', ui-monospace, monospace" font-size="11" fill="#6b6b6b" letter-spacing="0.16em">FAST_P CURVES · % OF PROBLEMS CORRECT AND ≥ p× MPS</text>
<line x1="128.0" y1="614.0" x2="1500.0" y2="614.0" stroke="rgba(255,255,255,0.045)" stroke-width="1"/>
<text x="118.0" y="618.0" text-anchor="end" font-family="'JetBrains Mono', ui-monospace, monospace" font-size="10" fill="#6b6b6b">0%</text>
<line x1="128.0" y1="551.0" x2="1500.0" y2="551.0" stroke="rgba(255,255,255,0.045)" stroke-width="1"/>
<text x="118.0" y="555.0" text-anchor="end" font-family="'JetBrains Mono', ui-monospace, monospace" font-size="10" fill="#6b6b6b">25%</text>
<line x1="128.0" y1="488.0" x2="1500.0" y2="488.0" stroke="rgba(255,255,255,0.045)" stroke-width="1"/>
<text x="118.0" y="492.0" text-anchor="end" font-family="'JetBrains Mono', ui-monospace, monospace" font-size="10" fill="#6b6b6b">50%</text>
<line x1="128.0" y1="425.0" x2="1500.0" y2="425.0" stroke="rgba(255,255,255,0.045)" stroke-width="1"/>
<text x="118.0" y="429.0" text-anchor="end" font-family="'JetBrains Mono', ui-monospace, monospace" font-size="10" fill="#6b6b6b">75%</text>
<line x1="128.0" y1="362.0" x2="1500.0" y2="362.0" stroke="rgba(255,255,255,0.045)" stroke-width="1"/>
<text x="118.0" y="366.0" text-anchor="end" font-family="'JetBrains Mono', ui-monospace, monospace" font-size="10" fill="#6b6b6b">100%</text>
<text x="128.0" y="632.0" text-anchor="middle" font-family="'JetBrains Mono', ui-monospace, monospace" font-size="10" fill="#6b6b6b">0.0×</text>
<text x="356.7" y="632.0" text-anchor="middle" font-family="'JetBrains Mono', ui-monospace, monospace" font-size="10" fill="#6b6b6b">0.5×</text>
<text x="585.3" y="632.0" text-anchor="middle" font-family="'JetBrains Mono', ui-monospace, monospace" font-size="10" fill="#6b6b6b">1.0×</text>
<text x="814.0" y="632.0" text-anchor="middle" font-family="'JetBrains Mono', ui-monospace, monospace" font-size="10" fill="#6b6b6b">1.5×</text>
<text x="1042.7" y="632.0" text-anchor="middle" font-family="'JetBrains Mono', ui-monospace, monospace" font-size="10" fill="#6b6b6b">2.0×</text>
<text x="1271.3" y="632.0" text-anchor="middle" font-family="'JetBrains Mono', ui-monospace, monospace" font-size="10" fill="#6b6b6b">2.5×</text>
<text x="1500.0" y="632.0" text-anchor="middle" font-family="'JetBrains Mono', ui-monospace, monospace" font-size="10" fill="#6b6b6b">3.0×</text>
<line x1="585.3" y1="362" x2="585.3" y2="614" stroke="rgba(255,255,255,0.18)" stroke-width="1" stroke-dasharray="2 4"/>
<text x="591.3" y="374" font-family="'JetBrains Mono', ui-monospace, monospace" font-size="10" fill="#6b6b6b">= MPS</text>
<text x="800.0" y="650" text-anchor="middle" font-family="'JetBrains Mono', ui-monospace, monospace" font-size="10" fill="#6b6b6b" letter-spacing="0.06em">SPEEDUP THRESHOLD p (× MPS)</text>
<path d="M128.0,614.0 L150.9,614.0 L173.7,614.0 L196.6,614.0 L219.5,614.0 L242.3,614.0 L265.2,614.0 L288.1,614.0 L310.9,614.0 L333.8,614.0 L356.7,614.0 L379.5,614.0 L402.4,614.0 L425.3,614.0 L448.1,614.0 L471.0,614.0 L493.9,614.0 L516.7,614.0 L539.6,614.0 L562.5,614.0 L585.3,614.0 L608.2,614.0 L631.1,614.0 L653.9,614.0 L676.8,614.0 L699.7,614.0 L722.5,614.0 L745.4,614.0 L768.3,614.0 L791.1,614.0 L814.0,614.0 L836.9,614.0 L859.7,614.0 L882.6,614.0 L905.5,614.0 L928.3,614.0 L951.2,614.0 L974.1,614.0 L996.9,614.0 L1019.8,614.0 L1042.7,614.0 L1065.5,614.0 L1088.4,614.0 L1111.3,614.0 L1134.1,614.0 L1157.0,614.0 L1179.9,614.0 L1202.7,614.0 L1225.6,614.0 L1248.5,614.0 L1271.3,614.0 L1294.2,614.0 L1317.1,614.0 L1339.9,614.0 L1362.8,614.0 L1385.7,614.0 L1408.5,614.0 L1431.4,614.0 L1454.3,614.0 L1477.1,614.0 L1500.0,614.0" fill="none" stroke="#90a373" stroke-width="1.25" stroke-linejoin="round" stroke-linecap="round"/>
<circle cx="128.0" cy="614.0" r="2" fill="#90a373"/>
<path d="M128.0,614.0 L150.9,614.0 L173.7,614.0 L196.6,614.0 L219.5,614.0 L242.3,614.0 L265.2,614.0 L288.1,614.0 L310.9,614.0 L333.8,614.0 L356.7,614.0 L379.5,614.0 L402.4,614.0 L425.3,614.0 L448.1,614.0 L471.0,614.0 L493.9,614.0 L516.7,614.0 L539.6,614.0 L562.5,614.0 L585.3,614.0 L608.2,614.0 L631.1,614.0 L653.9,614.0 L676.8,614.0 L699.7,614.0 L722.5,614.0 L745.4,614.0 L768.3,614.0 L791.1,614.0 L814.0,614.0 L836.9,614.0 L859.7,614.0 L882.6,614.0 L905.5,614.0 L928.3,614.0 L951.2,614.0 L974.1,614.0 L996.9,614.0 L1019.8,614.0 L1042.7,614.0 L1065.5,614.0 L1088.4,614.0 L1111.3,614.0 L1134.1,614.0 L1157.0,614.0 L1179.9,614.0 L1202.7,614.0 L1225.6,614.0 L1248.5,614.0 L1271.3,614.0 L1294.2,614.0 L1317.1,614.0 L1339.9,614.0 L1362.8,614.0 L1385.7,614.0 L1408.5,614.0 L1431.4,614.0 L1454.3,614.0 L1477.1,614.0 L1500.0,614.0" fill="none" stroke="#8a6d7d" stroke-width="1.25" stroke-linejoin="round" stroke-linecap="round"/>
<circle cx="128.0" cy="614.0" r="2" fill="#8a6d7d"/>
<path d="M128.0,593.0 L150.9,593.0 L173.7,593.0 L196.6,593.0 L219.5,593.0 L242.3,597.2 L265.2,597.2 L288.1,597.2 L310.9,597.2 L333.8,597.2 L356.7,597.2 L379.5,597.2 L402.4,597.2 L425.3,597.2 L448.1,597.2 L471.0,597.2 L493.9,597.2 L516.7,597.2 L539.6,597.2 L562.5,597.2 L585.3,597.2 L608.2,597.2 L631.1,601.4 L653.9,605.6 L676.8,609.8 L699.7,609.8 L722.5,609.8 L745.4,609.8 L768.3,609.8 L791.1,609.8 L814.0,609.8 L836.9,609.8 L859.7,609.8 L882.6,609.8 L905.5,609.8 L928.3,609.8 L951.2,609.8 L974.1,609.8 L996.9,614.0 L1019.8,614.0 L1042.7,614.0 L1065.5,614.0 L1088.4,614.0 L1111.3,614.0 L1134.1,614.0 L1157.0,614.0 L1179.9,614.0 L1202.7,614.0 L1225.6,614.0 L1248.5,614.0 L1271.3,614.0 L1294.2,614.0 L1317.1,614.0 L1339.9,614.0 L1362.8,614.0 L1385.7,614.0 L1408.5,614.0 L1431.4,614.0 L1454.3,614.0 L1477.1,614.0 L1500.0,614.0" fill="none" stroke="#c2b280" stroke-width="1.25" stroke-linejoin="round" stroke-linecap="round"/>
<circle cx="128.0" cy="593.0" r="2" fill="#c2b280"/>
<path d="M128.0,542.6 L150.9,542.6 L173.7,542.6 L196.6,542.6 L219.5,542.6 L242.3,542.6 L265.2,542.6 L288.1,542.6 L310.9,542.6 L333.8,542.6 L356.7,542.6 L379.5,542.6 L402.4,542.6 L425.3,542.6 L448.1,546.8 L471.0,546.8 L493.9,546.8 L516.7,546.8 L539.6,546.8 L562.5,546.8 L585.3,551.0 L608.2,551.0 L631.1,563.6 L653.9,572.0 L676.8,605.6 L699.7,609.8 L722.5,609.8 L745.4,609.8 L768.3,609.8 L791.1,609.8 L814.0,609.8 L836.9,609.8 L859.7,609.8 L882.6,609.8 L905.5,609.8 L928.3,609.8 L951.2,609.8 L974.1,609.8 L996.9,609.8 L1019.8,609.8 L1042.7,609.8 L1065.5,609.8 L1088.4,609.8 L1111.3,609.8 L1134.1,609.8 L1157.0,609.8 L1179.9,609.8 L1202.7,609.8 L1225.6,614.0 L1248.5,614.0 L1271.3,614.0 L1294.2,614.0 L1317.1,614.0 L1339.9,614.0 L1362.8,614.0 L1385.7,614.0 L1408.5,614.0 L1431.4,614.0 L1454.3,614.0 L1477.1,614.0 L1500.0,614.0" fill="none" stroke="#5c9c8a" stroke-width="1.25" stroke-linejoin="round" stroke-linecap="round"/>
<circle cx="128.0" cy="542.6" r="2" fill="#5c9c8a"/>
<path d="M128.0,502.7 L150.9,508.5 L173.7,508.5 L196.6,508.5 L219.5,508.5 L242.3,508.5 L265.2,514.4 L288.1,514.4 L310.9,514.4 L333.8,520.2 L356.7,520.2 L379.5,520.2 L402.4,520.2 L425.3,520.2 L448.1,520.2 L471.0,520.2 L493.9,520.2 L516.7,520.2 L539.6,520.2 L562.5,520.2 L585.3,520.2 L608.2,520.2 L631.1,532.0 L653.9,590.6 L676.8,602.3 L699.7,602.3 L722.5,602.3 L745.4,602.3 L768.3,602.3 L791.1,602.3 L814.0,602.3 L836.9,602.3 L859.7,602.3 L882.6,602.3 L905.5,602.3 L928.3,602.3 L951.2,602.3 L974.1,602.3 L996.9,602.3 L1019.8,602.3 L1042.7,602.3 L1065.5,602.3 L1088.4,602.3 L1111.3,602.3 L1134.1,602.3 L1157.0,602.3 L1179.9,602.3 L1202.7,602.3 L1225.6,602.3 L1248.5,602.3 L1271.3,602.3 L1294.2,608.1 L1317.1,608.1 L1339.9,614.0 L1362.8,614.0 L1385.7,614.0 L1408.5,614.0 L1431.4,614.0 L1454.3,614.0 L1477.1,614.0 L1500.0,614.0" fill="none" stroke="#b3735c" stroke-width="1.25" stroke-linejoin="round" stroke-linecap="round"/>
<circle cx="128.0" cy="502.7" r="2" fill="#b3735c"/>
<path d="M128.0,500.6 L150.9,500.6 L173.7,500.6 L196.6,500.6 L219.5,500.6 L242.3,500.6 L265.2,500.6 L288.1,504.8 L310.9,504.8 L333.8,504.8 L356.7,504.8 L379.5,517.4 L402.4,517.4 L425.3,517.4 L448.1,517.4 L471.0,517.4 L493.9,517.4 L516.7,517.4 L539.6,517.4 L562.5,517.4 L585.3,517.4 L608.2,517.4 L631.1,525.8 L653.9,559.4 L676.8,576.2 L699.7,576.2 L722.5,576.2 L745.4,576.2 L768.3,576.2 L791.1,576.2 L814.0,576.2 L836.9,576.2 L859.7,576.2 L882.6,576.2 L905.5,576.2 L928.3,576.2 L951.2,576.2 L974.1,580.4 L996.9,588.8 L1019.8,588.8 L1042.7,588.8 L1065.5,588.8 L1088.4,588.8 L1111.3,588.8 L1134.1,593.0 L1157.0,593.0 L1179.9,593.0 L1202.7,593.0 L1225.6,593.0 L1248.5,593.0 L1271.3,597.2 L1294.2,597.2 L1317.1,597.2 L1339.9,597.2 L1362.8,597.2 L1385.7,597.2 L1408.5,597.2 L1431.4,597.2 L1454.3,597.2 L1477.1,597.2 L1500.0,597.2" fill="none" stroke="#906188" stroke-width="1.25" stroke-linejoin="round" stroke-linecap="round"/>
<circle cx="128.0" cy="500.6" r="2" fill="#906188"/>
<path d="M128.0,488.0 L150.9,488.0 L173.7,488.0 L196.6,488.0 L219.5,488.0 L242.3,488.0 L265.2,488.0 L288.1,488.0 L310.9,488.0 L333.8,488.0 L356.7,488.0 L379.5,488.0 L402.4,488.0 L425.3,488.0 L448.1,488.0 L471.0,488.0 L493.9,488.0 L516.7,488.0 L539.6,488.0 L562.5,488.0 L585.3,488.0 L608.2,488.0 L631.1,614.0 L653.9,614.0 L676.8,614.0 L699.7,614.0 L722.5,614.0 L745.4,614.0 L768.3,614.0 L791.1,614.0 L814.0,614.0 L836.9,614.0 L859.7,614.0 L882.6,614.0 L905.5,614.0 L928.3,614.0 L951.2,614.0 L974.1,614.0 L996.9,614.0 L1019.8,614.0 L1042.7,614.0 L1065.5,614.0 L1088.4,614.0 L1111.3,614.0 L1134.1,614.0 L1157.0,614.0 L1179.9,614.0 L1202.7,614.0 L1225.6,614.0 L1248.5,614.0 L1271.3,614.0 L1294.2,614.0 L1317.1,614.0 L1339.9,614.0 L1362.8,614.0 L1385.7,614.0 L1408.5,614.0 L1431.4,614.0 L1454.3,614.0 L1477.1,614.0 L1500.0,614.0" fill="none" stroke="#c8a367" stroke-width="1.25" stroke-linejoin="round" stroke-linecap="round"/>
<circle cx="128.0" cy="488.0" r="2" fill="#c8a367"/>
<path d="M128.0,453.6 L150.9,453.6 L173.7,453.6 L196.6,453.6 L219.5,453.6 L242.3,453.6 L265.2,453.6 L288.1,453.6 L310.9,453.6 L333.8,453.6 L356.7,453.6 L379.5,453.6 L402.4,453.6 L425.3,453.6 L448.1,453.6 L471.0,453.6 L493.9,453.6 L516.7,453.6 L539.6,453.6 L562.5,453.6 L585.3,453.6 L608.2,465.1 L631.1,499.5 L653.9,591.1 L676.8,602.5 L699.7,602.5 L722.5,602.5 L745.4,602.5 L768.3,602.5 L791.1,602.5 L814.0,602.5 L836.9,602.5 L859.7,602.5 L882.6,602.5 L905.5,602.5 L928.3,602.5 L951.2,602.5 L974.1,602.5 L996.9,602.5 L1019.8,602.5 L1042.7,602.5 L1065.5,602.5 L1088.4,602.5 L1111.3,602.5 L1134.1,602.5 L1157.0,602.5 L1179.9,602.5 L1202.7,602.5 L1225.6,602.5 L1248.5,602.5 L1271.3,614.0 L1294.2,614.0 L1317.1,614.0 L1339.9,614.0 L1362.8,614.0 L1385.7,614.0 L1408.5,614.0 L1431.4,614.0 L1454.3,614.0 L1477.1,614.0 L1500.0,614.0" fill="none" stroke="#6b8fa5" stroke-width="1.25" stroke-linejoin="round" stroke-linecap="round"/>
<circle cx="128.0" cy="453.6" r="2" fill="#6b8fa5"/>
<path d="M128.0,406.5 L150.9,406.5 L173.7,406.5 L196.6,406.5 L219.5,406.5 L242.3,406.5 L265.2,421.3 L288.1,421.3 L310.9,421.3 L333.8,421.3 L356.7,436.1 L379.5,436.1 L402.4,436.1 L425.3,436.1 L448.1,436.1 L471.0,436.1 L493.9,436.1 L516.7,436.1 L539.6,436.1 L562.5,436.1 L585.3,436.1 L608.2,436.1 L631.1,436.1 L653.9,584.4 L676.8,599.2 L699.7,599.2 L722.5,599.2 L745.4,599.2 L768.3,599.2 L791.1,599.2 L814.0,599.2 L836.9,599.2 L859.7,599.2 L882.6,599.2 L905.5,599.2 L928.3,599.2 L951.2,599.2 L974.1,599.2 L996.9,599.2 L1019.8,599.2 L1042.7,599.2 L1065.5,599.2 L1088.4,599.2 L1111.3,599.2 L1134.1,599.2 L1157.0,599.2 L1179.9,599.2 L1202.7,599.2 L1225.6,599.2 L1248.5,599.2 L1271.3,614.0 L1294.2,614.0 L1317.1,614.0 L1339.9,614.0 L1362.8,614.0 L1385.7,614.0 L1408.5,614.0 L1431.4,614.0 L1454.3,614.0 L1477.1,614.0 L1500.0,614.0" fill="none" stroke="#407914" stroke-width="1.75" stroke-linejoin="round" stroke-linecap="round"/>
<circle cx="128.0" cy="406.5" r="3" fill="#407914"/>
<rect x="72" y="684" width="716.0" height="250" fill="rgba(15,15,15,0.30)" stroke="rgba(255,255,255,0.07)" stroke-width="1" rx="6"/>
<text x="94" y="714" font-family="'JetBrains Mono', ui-monospace, monospace" font-size="11" fill="#6b6b6b" letter-spacing="0.16em">BY TIER · fast_0</text>
<line x1="114.0" y1="894.0" x2="770.0" y2="894.0" stroke="rgba(255,255,255,0.045)" stroke-width="1"/>
<text x="106.0" y="898.0" text-anchor="end" font-family="'JetBrains Mono', ui-monospace, monospace" font-size="9" fill="#6b6b6b">0%</text>
<line x1="114.0" y1="856.0" x2="770.0" y2="856.0" stroke="rgba(255,255,255,0.045)" stroke-width="1"/>
<text x="106.0" y="860.0" text-anchor="end" font-family="'JetBrains Mono', ui-monospace, monospace" font-size="9" fill="#6b6b6b">25%</text>
<line x1="114.0" y1="818.0" x2="770.0" y2="818.0" stroke="rgba(255,255,255,0.045)" stroke-width="1"/>
<text x="106.0" y="822.0" text-anchor="end" font-family="'JetBrains Mono', ui-monospace, monospace" font-size="9" fill="#6b6b6b">50%</text>
<line x1="114.0" y1="780.0" x2="770.0" y2="780.0" stroke="rgba(255,255,255,0.045)" stroke-width="1"/>
<text x="106.0" y="784.0" text-anchor="end" font-family="'JetBrains Mono', ui-monospace, monospace" font-size="9" fill="#6b6b6b">75%</text>
<line x1="114.0" y1="742.0" x2="770.0" y2="742.0" stroke="rgba(255,255,255,0.045)" stroke-width="1"/>
<text x="106.0" y="746.0" text-anchor="end" font-family="'JetBrains Mono', ui-monospace, monospace" font-size="9" fill="#6b6b6b">100%</text>
<rect x="122.0" y="742.0" width="14.7" height="152.0" fill="#407914"/>
<rect x="138.7" y="762.3" width="14.7" height="131.7" fill="#6b8fa5"/>
<rect x="155.3" y="818.0" width="14.7" height="76.0" fill="#c8a367"/>
<rect x="172.0" y="752.1" width="14.7" height="141.9" fill="#906188"/>
<rect x="188.7" y="742.0" width="14.7" height="152.0" fill="#b3735c"/>
<rect x="205.3" y="742.0" width="14.7" height="152.0" fill="#5c9c8a"/>
<rect x="222.0" y="863.6" width="14.7" height="30.4" fill="#c2b280"/>
<rect x="238.7" y="892.5" width="14.7" height="1.5" fill="#8a6d7d" opacity="0.6"/>
<rect x="255.3" y="892.5" width="14.7" height="1.5" fill="#90a373" opacity="0.6"/>
<text x="196.0" y="914.0" text-anchor="middle" font-family="'JetBrains Mono', ui-monospace, monospace" font-size="10" fill="#6b6b6b" letter-spacing="0.06em">T1</text>
<rect x="286.0" y="833.2" width="14.7" height="60.8" fill="#407914"/>
<rect x="302.7" y="872.3" width="14.7" height="21.7" fill="#6b8fa5"/>
<line x1="319.3" y1="893.5" x2="334.0" y2="893.5" stroke="#6b6b6b" stroke-width="1" stroke-dasharray="2 3" opacity="0.5"/>
<rect x="336.0" y="823.1" width="14.7" height="70.9" fill="#906188"/>
<rect x="352.7" y="847.2" width="14.7" height="46.8" fill="#b3735c"/>
<rect x="369.3" y="883.9" width="14.7" height="10.1" fill="#5c9c8a"/>
<rect x="386.0" y="892.5" width="14.7" height="1.5" fill="#c2b280" opacity="0.6"/>
<rect x="402.7" y="892.5" width="14.7" height="1.5" fill="#8a6d7d" opacity="0.6"/>
<rect x="419.3" y="892.5" width="14.7" height="1.5" fill="#90a373" opacity="0.6"/>
<text x="360.0" y="914.0" text-anchor="middle" font-family="'JetBrains Mono', ui-monospace, monospace" font-size="10" fill="#6b6b6b" letter-spacing="0.06em">T2</text>
<line x1="450.0" y1="893.5" x2="464.7" y2="893.5" stroke="#6b6b6b" stroke-width="1" stroke-dasharray="2 3" opacity="0.5"/>
<line x1="466.7" y1="893.5" x2="481.3" y2="893.5" stroke="#6b6b6b" stroke-width="1" stroke-dasharray="2 3" opacity="0.5"/>
<line x1="483.3" y1="893.5" x2="498.0" y2="893.5" stroke="#6b6b6b" stroke-width="1" stroke-dasharray="2 3" opacity="0.5"/>
<rect x="500.0" y="863.6" width="14.7" height="30.4" fill="#906188"/>
<rect x="516.7" y="892.5" width="14.7" height="1.5" fill="#b3735c" opacity="0.6"/>
<rect x="533.3" y="892.5" width="14.7" height="1.5" fill="#5c9c8a" opacity="0.6"/>
<rect x="550.0" y="883.9" width="14.7" height="10.1" fill="#c2b280"/>
<rect x="566.7" y="892.5" width="14.7" height="1.5" fill="#8a6d7d" opacity="0.6"/>
<rect x="583.3" y="892.5" width="14.7" height="1.5" fill="#90a373" opacity="0.6"/>
<text x="524.0" y="914.0" text-anchor="middle" font-family="'JetBrains Mono', ui-monospace, monospace" font-size="10" fill="#6b6b6b" letter-spacing="0.06em">T3</text>
<line x1="614.0" y1="893.5" x2="628.7" y2="893.5" stroke="#6b6b6b" stroke-width="1" stroke-dasharray="2 3" opacity="0.5"/>
<line x1="630.7" y1="893.5" x2="645.3" y2="893.5" stroke="#6b6b6b" stroke-width="1" stroke-dasharray="2 3" opacity="0.5"/>
<line x1="647.3" y1="893.5" x2="662.0" y2="893.5" stroke="#6b6b6b" stroke-width="1" stroke-dasharray="2 3" opacity="0.5"/>
<rect x="664.0" y="863.6" width="14.7" height="30.4" fill="#906188"/>
<rect x="680.7" y="892.5" width="14.7" height="1.5" fill="#b3735c" opacity="0.6"/>
<rect x="697.3" y="883.9" width="14.7" height="10.1" fill="#5c9c8a"/>
<rect x="714.0" y="883.9" width="14.7" height="10.1" fill="#c2b280"/>
<rect x="730.7" y="892.5" width="14.7" height="1.5" fill="#8a6d7d" opacity="0.6"/>
<rect x="747.3" y="892.5" width="14.7" height="1.5" fill="#90a373" opacity="0.6"/>
<text x="688.0" y="914.0" text-anchor="middle" font-family="'JetBrains Mono', ui-monospace, monospace" font-size="10" fill="#6b6b6b" letter-spacing="0.06em">T4</text>
<rect x="812.0" y="684" width="716.0" height="250" fill="rgba(15,15,15,0.30)" stroke="rgba(255,255,255,0.07)" stroke-width="1" rx="6"/>
<text x="834.0" y="714" font-family="'JetBrains Mono', ui-monospace, monospace" font-size="11" fill="#6b6b6b" letter-spacing="0.16em">FAILURE MODES · correct + failure stages</text>
<text x="1042.0" y="753.5" text-anchor="end" font-family="'JetBrains Mono', ui-monospace, monospace" font-size="9.5" fill="#6b6b6b" letter-spacing="0.02em">groq · llama-3.3-70b · repair</text>
<rect x="1052.0" y="742.0" width="106.4" height="16" fill="#407914"/>
<text x="1105.2" y="753.0" text-anchor="middle" font-family="'JetBrains Mono', ui-monospace, monospace" font-size="9" fill="#050505" font-weight="500">14</text>
<rect x="1158.4" y="742.0" width="15.2" height="16" fill="rgba(237,237,237,0.72)"/>
<rect x="1173.6" y="742.0" width="7.6" height="16" fill="rgba(237,237,237,0.22)"/>
<text x="1042.0" y="779.5" text-anchor="end" font-family="'JetBrains Mono', ui-monospace, monospace" font-size="9.5" fill="#6b6b6b" letter-spacing="0.02em">gemini · gemini-2.5-flash · o…</text>
<rect x="1052.0" y="768.0" width="106.4" height="16" fill="#407914"/>
<text x="1105.2" y="779.0" text-anchor="middle" font-family="'JetBrains Mono', ui-monospace, monospace" font-size="9" fill="#050505" font-weight="500">14</text>
<rect x="1158.4" y="768.0" width="45.6" height="16" fill="rgba(237,237,237,0.44)"/>
<text x="1181.2" y="779.0" text-anchor="middle" font-family="'JetBrains Mono', ui-monospace, monospace" font-size="9" fill="rgba(5,5,5,0.85)" font-weight="500">6</text>
<rect x="1204.0" y="768.0" width="7.6" height="16" fill="rgba(237,237,237,0.22)"/>
<rect x="1211.6" y="768.0" width="7.6" height="16" fill="rgba(237,237,237,0.12)"/>
<text x="1042.0" y="805.5" text-anchor="end" font-family="'JetBrains Mono', ui-monospace, monospace" font-size="9.5" fill="#6b6b6b" letter-spacing="0.02em">gemini · gemini-2.5-flash · r…</text>
<rect x="1052.0" y="794.0" width="7.6" height="16" fill="#407914"/>
<rect x="1059.6" y="794.0" width="7.6" height="16" fill="rgba(237,237,237,0.22)"/>
<text x="1042.0" y="831.5" text-anchor="end" font-family="'JetBrains Mono', ui-monospace, monospace" font-size="9.5" fill="#6b6b6b" letter-spacing="0.02em">groq · openai-gpt-oss-120b · …</text>
<rect x="1052.0" y="820.0" width="205.2" height="16" fill="#407914"/>
<text x="1154.6" y="831.0" text-anchor="middle" font-family="'JetBrains Mono', ui-monospace, monospace" font-size="9" fill="#050505" font-weight="500">27</text>
<rect x="1257.2" y="820.0" width="30.4" height="16" fill="rgba(237,237,237,0.72)"/>
<text x="1272.4" y="831.0" text-anchor="middle" font-family="'JetBrains Mono', ui-monospace, monospace" font-size="9" fill="rgba(5,5,5,0.85)" font-weight="500">4</text>
<rect x="1287.6" y="820.0" width="205.2" height="16" fill="rgba(237,237,237,0.44)"/>
<text x="1390.2" y="831.0" text-anchor="middle" font-family="'JetBrains Mono', ui-monospace, monospace" font-size="9" fill="rgba(5,5,5,0.85)" font-weight="500">27</text>
<rect x="1492.8" y="820.0" width="15.2" height="16" fill="rgba(237,237,237,0.12)"/>
<text x="1042.0" y="857.5" text-anchor="end" font-family="'JetBrains Mono', ui-monospace, monospace" font-size="9.5" fill="#6b6b6b" letter-spacing="0.02em">groq · llama-3.3-70b · one_sh…</text>
<rect x="1052.0" y="846.0" width="144.4" height="16" fill="#407914"/>
<text x="1124.2" y="857.0" text-anchor="middle" font-family="'JetBrains Mono', ui-monospace, monospace" font-size="9" fill="#050505" font-weight="500">19</text>
<rect x="1196.4" y="846.0" width="38.0" height="16" fill="rgba(237,237,237,0.72)"/>
<text x="1215.4" y="857.0" text-anchor="middle" font-family="'JetBrains Mono', ui-monospace, monospace" font-size="9" fill="rgba(5,5,5,0.85)" font-weight="500">5</text>
<rect x="1234.4" y="846.0" width="136.8" height="16" fill="rgba(237,237,237,0.44)"/>
<text x="1302.8" y="857.0" text-anchor="middle" font-family="'JetBrains Mono', ui-monospace, monospace" font-size="9" fill="rgba(5,5,5,0.85)" font-weight="500">18</text>
<rect x="1371.2" y="846.0" width="7.6" height="16" fill="rgba(237,237,237,0.22)"/>
<text x="1042.0" y="883.5" text-anchor="end" font-family="'JetBrains Mono', ui-monospace, monospace" font-size="9.5" fill="#6b6b6b" letter-spacing="0.02em">groq · llama-3.1-8b · one_shot</text>
<rect x="1052.0" y="872.0" width="129.2" height="16" fill="#407914"/>
<text x="1116.6" y="883.0" text-anchor="middle" font-family="'JetBrains Mono', ui-monospace, monospace" font-size="9" fill="#050505" font-weight="500">17</text>
<rect x="1181.2" y="872.0" width="38.0" height="16" fill="rgba(237,237,237,0.72)"/>
<text x="1200.2" y="883.0" text-anchor="middle" font-family="'JetBrains Mono', ui-monospace, monospace" font-size="9" fill="rgba(5,5,5,0.85)" font-weight="500">5</text>
<rect x="1219.2" y="872.0" width="281.2" height="16" fill="rgba(237,237,237,0.44)"/>
<text x="1359.8" y="883.0" text-anchor="middle" font-family="'JetBrains Mono', ui-monospace, monospace" font-size="9" fill="rgba(5,5,5,0.85)" font-weight="500">37</text>
<rect x="1500.4" y="872.0" width="7.6" height="16" fill="rgba(237,237,237,0.22)"/>
<text x="1042.0" y="909.5" text-anchor="end" font-family="'JetBrains Mono', ui-monospace, monospace" font-size="9.5" fill="#6b6b6b" letter-spacing="0.02em">groq · qwen-qwen3-32b · one_s…</text>
<rect x="1052.0" y="898.0" width="38.0" height="16" fill="#407914"/>
<text x="1071.0" y="909.0" text-anchor="middle" font-family="'JetBrains Mono', ui-monospace, monospace" font-size="9" fill="#050505" font-weight="500">5</text>
<rect x="1090.0" y="898.0" width="273.6" height="16" fill="rgba(237,237,237,0.44)"/>
<text x="1226.8" y="909.0" text-anchor="middle" font-family="'JetBrains Mono', ui-monospace, monospace" font-size="9" fill="rgba(5,5,5,0.85)" font-weight="500">36</text>
<rect x="1363.6" y="898.0" width="38.0" height="16" fill="rgba(237,237,237,0.22)"/>
<text x="1382.6" y="909.0" text-anchor="middle" font-family="'JetBrains Mono', ui-monospace, monospace" font-size="9" fill="rgba(5,5,5,0.85)" font-weight="500">5</text>
<rect x="1401.6" y="898.0" width="106.4" height="16" fill="rgba(237,237,237,0.12)"/>
<text x="1454.8" y="909.0" text-anchor="middle" font-family="'JetBrains Mono', ui-monospace, monospace" font-size="9" fill="rgba(5,5,5,0.85)" font-weight="500">14</text>
<text x="72" y="966" font-family="'JetBrains Mono', ui-monospace, monospace" font-size="12" fill="#a1a1a1" letter-spacing="0.06em">BEST FAST_1 · 38.3%  ·  groq · openai-gpt-oss-120b · one_shot  ·  n=60</text>
<text x="1528" y="966" text-anchor="end" font-family="'JetBrains Mono', ui-monospace, monospace" font-size="12" fill="#6b6b6b" letter-spacing="0.14em">MSL-BENCH v0.1</text>
</svg>